# xmcd
#
# Track frame offsets:
#	150
#	9686
#	24690
#	49980
#	72744
#	93837
#	109426
#	125980
#	151033
#	166631
#	179722
#
# Disc length: 2596 seconds
#
# Revision: 0
# Processed by: cddbd v1.4PL0 Copyright (c) Steve Scherf et al.
# Submitted via: audiograbber 1.81.03
#
DISCID=9a0a220b
DTITLE=Johnny Winter - Raisin' Cain
DYEAR=1980
DGENRE=Blues
TTITLE0=The Crawl
TTITLE1=Sitting In The Jail House
TTITLE2=Like A Rolling Stone
TTITLE3=New York, New York
TTITLE4=Bon Ton Roulet
TTITLE5=Rollin' And Tumblin'
TTITLE6=Talk Is Cheap
TTITLE7=Wolf In Sheep's Clothing
TTITLE8=Don't Hide Your Love
TTITLE9=Mother-In-Law Blues
TTITLE10=Walkin' Slowly
EXTD=
EXTT0=
EXTT1=
EXTT2=
EXTT3=
EXTT4=
EXTT5=
EXTT6=
EXTT7=
EXTT8=
EXTT9=
EXTT10=
PLAYORDER=
